<?xml version="1.0" encoding="UTF-8"?>
<svg width="35px" height="35px" viewBox="0 0 35 35" version="1.1" xmlns="http://www.w3.org/2000/svg" xmlns:xlink="http://www.w3.org/1999/xlink">
    <!-- Generator: Sketch 50.2 (55047) - http://www.bohemiancoding.com/sketch -->
    <title>close</title>
    <desc>Created with Sketch.</desc>
    <defs></defs>
    <g id="Page-1" stroke="none" stroke-width="1" fill="none" fill-rule="evenodd">
        <g id="Desktop---Lightbox-Gallery" transform="translate(-915.000000, -60.000000)" fill="#000000" fill-rule="nonzero">
            <g id="close" transform="translate(915.000000, 60.000000)">
                <path d="M17.4999406,0 C7.85046618,0 0,7.85049281 0,17.5 C0,27.1495072 7.85046618,35 17.4999406,35 C22.0448849,35 26.3515837,33.2658 29.626954,30.1168422 C29.9105456,29.8442895 29.9194487,29.3933191 29.6467781,29.1098453 C29.374345,28.8263714 28.9234949,28.8173496 28.6397846,29.0900211 C25.6311495,31.9825703 21.6749931,33.5755082 17.5000594,33.5755082 C8.63595202,33.5756269 1.42448693,26.3641374 1.42448693,17.5 C1.42448693,8.6358626 8.63595202,1.42449176 17.4999406,1.42449176 C26.3639293,1.42449176 33.5753944,8.63598131 33.5753944,17.5 C33.5753944,19.4992742 33.2130999,21.4497595 32.498601,23.2970879 C32.3567458,23.6640133 32.5390801,24.0764036 32.9060042,24.218378 C33.273047,24.3599962 33.6853173,24.1778987 33.8272911,23.8109733 C34.6054171,21.7989974 35,19.6756738 35,17.4998813 C35,7.85049281 27.1495338,0 17.4999406,0 Z" id="Shape"></path>
                <path d="M20.3771781,19.2352648 C20.0570994,18.9166968 19.5441632,18.9224665 19.2312424,19.2476284 C18.9181866,19.5729277 18.9237238,20.0948078 19.2433973,20.4132385 L25.6228219,26.7648174 C25.7805653,26.9218348 25.9851726,27 26.1896448,27 C26.3999243,27 26.6100688,26.9171641 26.7687576,26.7523164 C27.0818134,26.4270171 27.0762762,25.905137 26.7566027,25.5867064 L20.3771781,19.2352648 Z" id="Shape"></path>
                <path d="M15.5682662,16.7544171 C15.7319408,16.9180924 15.9466328,17 16.1613247,17 C16.3760166,17 16.5905688,16.9180924 16.7543832,16.7544171 C17.0818723,16.4269266 17.0818723,15.8959252 16.7543832,15.5684347 L10.431594,9.24561787 C10.104105,8.91812738 9.57296608,8.91812738 9.24561679,9.24561787 C8.91812774,9.57310836 8.91812774,10.1041098 9.24561679,10.4316003 L15.5682662,16.7544171 Z" id="Shape"></path>
                <path d="M24.7969561,9.20304429 C24.5262308,8.93231857 24.0871545,8.93231857 23.8165448,9.20304429 L9.20304393,23.8165716 C8.93231869,24.0872973 8.93231869,24.5262589 9.20304393,24.7969846 C9.33834877,24.9322897 9.51582805,25 9.69330734,25 C9.87078662,25 10.0481504,24.9322897 10.1835707,24.7969846 L24.7969561,10.1835729 C25.0676813,9.91273161 25.0676813,9.47388556 24.7969561,9.20304429 Z" id="Shape"></path>
            </g>
        </g>
    </g>
</svg>