<?xml version="1.0" encoding="UTF-8"?>
<svg width="151px" height="70px" viewBox="0 0 151 70" version="1.1" xmlns="http://www.w3.org/2000/svg" xmlns:xlink="http://www.w3.org/1999/xlink">
    <!-- Generator: Sketch 50.2 (55047) - http://www.bohemiancoding.com/sketch -->
    <title>Page 1</title>
    <desc>Created with Sketch.</desc>
    <defs>
        <polygon id="path-1" points="0 43.493565 0.866659653 0.102836 88.1362809 1.829099 87.2671165 45.219828"></polygon>
        <polygon id="path-3" points="0.243556473 44.11561 1.11021613 0.724881 88.3773326 2.448653 87.510673 45.839382"></polygon>
    </defs>
    <g id="Page-1" stroke="none" stroke-width="1" fill="none" fill-rule="evenodd">
        <g id="Seed-Desktop-v1" transform="translate(-543.000000, -2036.000000)">
            <g id="COMMERCIAL-" transform="translate(-18.000000, 1680.000000)">
                <g id="Page-1" transform="translate(561.000000, 356.000000)">
                    <polygon id="Fill-1" fill="#B9D4C8" points="72 69.9022762 77.1580278 70 78 29.1001668 72.8394437 29"></polygon>
                    <g id="Group-8">
                        <g id="Group-4">
                            <mask id="mask-2" fill="white">
                                <use xlink:href="#path-1"></use>
                            </mask>
                            <g id="Clip-3"></g>
                            <path d="M43.6345602,44.3581911 C19.5359113,43.8824101 0.386740608,24.0665051 0.867661572,0.1030851 L44.5012198,0.9649711 C68.5973639,1.4407521 87.7465346,21.2541661 87.2656136,45.2200771 L43.6345602,44.3581911 Z" id="Fill-2" fill="#E9F6F0" mask="url(#mask-2)"></path>
                        </g>
                        <g id="Group-7" transform="translate(62.013165, 0.611000)">
                            <mask id="mask-4" fill="white">
                                <use xlink:href="#path-3"></use>
                            </mask>
                            <g id="Clip-6"></g>
                            <path d="M43.8768642,44.9779942 C67.9755131,45.4512842 87.9011708,26.4125712 88.3795869,2.4491512 L44.7435239,1.5847742 C20.6473798,1.1089932 0.72172216,20.1477062 0.24581079,44.1136172 L43.8768642,44.9779942 Z" id="Fill-5" fill="#C3E9C9" mask="url(#mask-4)"></path>
                        </g>
                    </g>
                </g>
            </g>
        </g>
    </g>
</svg>