<?xml version="1.0" encoding="UTF-8"?>
<svg width="88px" height="63px" viewBox="0 0 88 63" version="1.1" xmlns="http://www.w3.org/2000/svg" xmlns:xlink="http://www.w3.org/1999/xlink">
    <!-- Generator: Sketch 50.2 (55047) - http://www.bohemiancoding.com/sketch -->
    <title>logo</title>
    <desc>Created with Sketch.</desc>
    <defs>
        <filter x="-0.2%" y="-1.1%" width="100.4%" height="104.3%" filterUnits="objectBoundingBox" id="filter-1">
            <feOffset dx="0" dy="1" in="SourceAlpha" result="shadowOffsetOuter1"></feOffset>
            <feGaussianBlur stdDeviation="0.5" in="shadowOffsetOuter1" result="shadowBlurOuter1"></feGaussianBlur>
            <feColorMatrix values="0 0 0 0 0   0 0 0 0 0   0 0 0 0 0  0 0 0 0.183112545 0" type="matrix" in="shadowBlurOuter1" result="shadowMatrixOuter1"></feColorMatrix>
            <feMerge>
                <feMergeNode in="shadowMatrixOuter1"></feMergeNode>
                <feMergeNode in="SourceGraphic"></feMergeNode>
            </feMerge>
        </filter>
        <polygon id="path-2" points="0.55803871 0.74026875 23.8412903 0.74026875 23.8412903 12.9585625 0.55803871 12.9585625"></polygon>
    </defs>
    <g id="Page-1" stroke="none" stroke-width="1" fill="none" fill-rule="evenodd">
        <g id="Seed-Desktop-v1" transform="translate(-24.000000, -759.000000)">
            <g id="nav" filter="url(#filter-1)" transform="translate(0.000000, 743.000000)">
                <g id="logo" transform="translate(25.000000, 16.000000)">
                    <path d="M2.2280278,58.7802027 C0.864395919,57.3000779 0.120668408,55.0077942 0,51.9025721 L5.18716419,51.0358535 C5.23527382,52.8901013 5.49790506,54.2556508 5.97190319,55.1340608 C6.44747868,56.0124708 7.15965889,56.451286 8.10923251,56.451286 C8.81589195,56.451286 9.32695815,56.2291504 9.6432198,55.7833203 C9.96027012,55.3382697 10.1187953,54.7669525 10.1187953,54.0693687 C10.1187953,52.913484 9.85616405,51.9329696 9.33326761,51.1262666 C8.80958249,50.3203429 7.98698674,49.4356976 6.86705772,48.4731099 L3.79829447,45.83788 C2.58056884,44.826968 1.64913491,43.7435698 1.0039927,42.5884645 C0.358850495,41.4333593 0.0362793907,40.0498831 0.0362793907,38.4372564 C0.0362793907,36.0545596 0.748459605,34.2190179 2.17360871,32.9314108 C3.59718046,31.644583 5.5633657,31 8.07295312,31 C10.7513186,31 12.6141864,31.7646142 13.6615567,33.2922837 C14.7081382,34.8215121 15.3059595,36.7646142 15.4518657,39.1231489 L10.2284221,39.8807482 C10.1787352,38.3413874 10.0020703,37.2042089 9.69842756,36.4692128 C9.39320747,35.7357755 8.79065411,35.3686672 7.8899788,35.3686672 C7.23300636,35.3686672 6.72115148,35.6157443 6.35520284,36.1083398 C5.99083157,36.6017147 5.80785725,37.1855027 5.80785725,37.8597038 C5.80785725,38.8222915 6.0208015,39.6344505 6.44747868,40.2961808 C6.87336718,40.9586906 7.54847932,41.6858924 8.47439247,42.4801247 L11.4698083,45.0795012 C12.8823384,46.3070928 13.9904372,47.6009353 14.7948933,48.9602494 C15.597772,50.3203429 16,51.9150429 16,53.7443492 C16,55.1402962 15.6829497,56.3858145 15.0504264,57.4809041 C14.4163257,58.5759938 13.5211712,59.4356976 12.3657515,60.0615744 C11.2079657,60.6874513 9.87430374,61 8.36476561,61 C5.63671317,61 3.59165968,60.2603274 2.2280278,58.7802027" id="Fill-1" fill="#231F20"></path>
                    <polygon id="Fill-3" fill="#231F20" points="22 31 34.9272639 31 34.9272639 35.081241 28.0062641 35.081241 28.0062641 42.7791727 33.3515782 42.7791727 33.3515782 46.8959699 28.0062641 46.8959699 28.0062641 55.9898715 35 55.9898715 35 60 22 60"></polygon>
                    <polygon id="Fill-5" fill="#231F20" points="40 31 52.9272639 31 52.9272639 35.081241 46.0062641 35.081241 46.0062641 42.7791727 51.3515782 42.7791727 51.3515782 46.8959699 46.0062641 46.8959699 46.0062641 55.9898715 53 55.9898715 53 60 40 60"></polygon>
                    <path d="M66.3274089,55.8824298 C67.3770065,55.8824298 68.1529335,55.7216536 68.6536082,55.3993283 C69.1542828,55.077003 69.4722468,54.606269 69.6067092,53.9848073 C69.7395896,53.3648915 69.8076118,52.4690282 69.8076118,51.2995362 L69.8076118,39.306253 C69.8076118,38.2086465 69.7285163,37.379258 69.5703252,36.8180873 C69.4105523,36.2576896 69.0870516,35.839517 68.5990322,35.5651154 C68.1102219,35.2907138 67.3406225,35.1531265 66.291025,35.1531265 L65.0088866,35.1531265 L65.0088866,55.8824298 L66.3274089,55.8824298 Z M59,31 L66.2538501,31 C68.745359,31 70.6934816,31.3169145 72.0974271,31.9491977 C73.5013725,32.5814809 74.5027218,33.5546404 75.1014749,34.8671304 C75.700228,36.1796204 76,37.9226505 76,40.0939016 L76,50.6556586 C76,52.8748334 75.7057647,54.6596034 75.1196669,56.0076497 C74.5335691,57.3564689 73.5448751,58.359001 72.152003,59.015246 C70.7599218,59.671491 68.8426464,60 66.4009678,60 L59,60 L59,31 Z" id="Fill-7" fill="#231F20"></path>
                    <path d="M64.1429241,7.26214219 C59.1699053,11.2725014 58.5927292,18.3186498 62.8521628,23 L71.8575296,15.7378578 C76.8305484,11.7274986 77.406936,4.680608 73.1475024,0 L64.1429241,7.26214219 Z" id="Fill-9" fill="#186E48"></path>
                    <g id="Group-13" opacity="0.6" transform="translate(62.000000, 10.000000)">
                        <mask id="mask-3" fill="white">
                            <use xlink:href="#path-2"></use>
                        </mask>
                        <g id="Clip-12"></g>
                        <path d="M12.1995871,0.74026875 C5.76913548,0.74026875 0.55803871,6.21001875 0.55803871,12.9586438 L12.1995871,12.9586438 C18.6292645,12.9586438 23.8419097,7.48889375 23.8419097,0.74026875 L12.1995871,0.74026875 Z" id="Fill-11" fill="#37B34A" mask="url(#mask-3)"></path>
                    </g>
                </g>
            </g>
        </g>
    </g>
</svg>