<?xml version="1.0" encoding="UTF-8"?>
<svg width="65px" height="46px" viewBox="0 0 65 46" version="1.1" xmlns="http://www.w3.org/2000/svg" xmlns:xlink="http://www.w3.org/1999/xlink">
    <!-- Generator: Sketch 50.2 (55047) - http://www.bohemiancoding.com/sketch -->
    <title>Page 1</title>
    <desc>Created with Sketch.</desc>
    <defs>
        <polygon id="path-1" points="0.421773443 0.558235451 18.0195799 0.558235451 18.0195799 9.77203074 0.421773443 9.77203074"></polygon>
    </defs>
    <g id="Page-1" stroke="none" stroke-width="1" fill="none" fill-rule="evenodd">
        <g id="Mobile---320-" transform="translate(-128.000000, -9.000000)">
            <g id="Nav">
                <g id="Page-1" transform="translate(128.000000, 9.000000)">
                    <path d="M1.6839745,44.3260545 C0.653322497,43.2098948 0.0912028668,41.4812875 0,39.1396445 L3.92053108,38.4860534 C3.956893,39.8843387 4.15539336,40.9140973 4.51364776,41.5765049 C4.87309435,42.2389124 5.41137009,42.5698223 6.12907109,42.5698223 C6.66317415,42.5698223 7.04944511,42.4023102 7.28848008,42.0661104 C7.52811114,41.7304984 7.64792667,41.2996691 7.64792667,40.7736223 C7.64792667,39.9019716 7.44942631,39.1625672 7.05421389,38.5542338 C6.65840537,37.9464881 6.03667602,37.2793785 5.19021805,36.5534927 L2.87080396,34.5662701 C1.95042994,33.8039431 1.24643918,32.9869542 0.758831695,32.1158913 C0.271224212,31.2448283 0.0274204697,30.2015512 0.0274204697,28.9854721 C0.0274204697,27.1886843 0.565696213,25.8045053 1.6428438,24.8335229 C2.71879919,23.8631282 4.20486943,23.3770492 6.10165062,23.3770492 C8.1259966,23.3770492 9.53397811,23.9536435 10.3255952,25.1056566 C11.1166161,26.2588452 11.5684577,27.7241353 11.6787357,29.5027024 L7.73078418,30.0740069 C7.69323006,28.9131774 7.55970429,28.0556329 7.33020688,27.5013736 C7.09951728,26.9482897 6.64409904,26.6714539 5.96335607,26.6714539 C5.46680713,26.6714539 5.07994007,26.8577744 4.80335098,27.2292399 C4.52795409,27.6012931 4.38965955,28.0415266 4.38965955,28.5499406 C4.38965955,29.2758264 4.55060578,29.8882742 4.87309435,30.3872839 C5.19498682,30.8868814 5.705246,31.4352632 6.40506407,32.0341924 L8.66904112,33.9943779 C9.73665115,34.9201027 10.5741677,35.8957873 11.1821868,36.9208438 C11.7890137,37.9464881 12.0930233,39.1490487 12.0930233,40.5285256 C12.0930233,41.581207 11.8533922,42.5204503 11.3753223,43.3462556 C10.8960601,44.1720609 10.2194899,44.8203621 9.3462075,45.2923348 C8.47113686,45.7643075 7.46313655,46 6.32220657,46 C4.26030646,46 2.71462651,45.4422141 1.6839745,44.3260545" id="Fill-1" fill="#231F20"></path>
                    <polygon id="Fill-3" fill="#231F20" points="16.627907 23.3770492 26.3985134 23.3770492 26.3985134 26.4547063 21.1675252 26.4547063 21.1675252 32.259704 25.2075882 32.259704 25.2075882 35.364174 21.1675252 35.364174 21.1675252 42.2218703 26.4534884 42.2218703 26.4534884 45.2459016 16.627907 45.2459016"></polygon>
                    <polygon id="Fill-5" fill="#231F20" points="30.2325581 23.3770492 40.0031646 23.3770492 40.0031646 26.4547063 34.7721763 26.4547063 34.7721763 32.259704 38.8122393 32.259704 38.8122393 35.364174 34.7721763 35.364174 34.7721763 42.2218703 40.0581395 42.2218703 40.0581395 45.2459016 30.2325581 45.2459016"></polygon>
                    <path d="M50.1311812,42.1408487 C50.9244816,42.1408487 51.5109381,42.0196076 51.889355,41.7765427 C52.2677719,41.5334777 52.5080935,41.1784979 52.609722,40.7098547 C52.710155,40.2423772 52.761567,39.5668082 52.761567,38.6848962 L52.761567,29.6407809 C52.761567,28.8130777 52.7017855,28.1876371 52.5822226,27.7644593 C52.4614639,27.3418643 52.2169576,27.026521 51.8481058,26.8195952 C51.4786561,26.6126694 50.8969821,26.5089151 50.1036817,26.5089151 L49.1346236,26.5089151 L49.1346236,42.1408487 L50.1311812,42.1408487 Z M44.5930233,23.3770492 L50.0755844,23.3770492 C51.9587015,23.3770492 53.4311198,23.6160339 54.4922414,24.0928376 C55.553363,24.5696413 56.3101967,25.3034993 56.7627427,26.2932459 C57.2152886,27.2829925 57.4418605,28.5974085 57.4418605,30.2347455 L57.4418605,38.1993491 C57.4418605,39.8728252 57.2194733,41.2187173 56.7764924,42.2352768 C56.3335115,43.2524192 55.5862428,44.008427 54.5334906,44.5033003 C53.4813363,44.9981736 52.0322328,45.2459016 50.186778,45.2459016 L44.5930233,45.2459016 L44.5930233,23.3770492 Z" id="Fill-7" fill="#231F20"></path>
                    <path d="M48.4801171,5.47636952 C44.7214401,8.5005748 44.2852023,13.8140638 47.5045416,17.3442623 L54.3109235,11.8678928 C58.0696005,8.84368749 58.5052423,3.52963882 55.285903,0 L48.4801171,5.47636952 Z" id="Fill-9" fill="#186E48"></path>
                    <g id="Group-13" opacity="0.6" transform="translate(46.860465, 7.540984)">
                        <mask id="mask-2" fill="white">
                            <use xlink:href="#path-1"></use>
                        </mask>
                        <g id="Clip-12"></g>
                        <path d="M9.22061815,0.558235451 C4.3603931,0.558235451 0.421773443,4.68296496 0.421773443,9.77209201 L9.22061815,9.77209201 C14.0802581,9.77209201 18.020048,5.6473625 18.020048,0.558235451 L9.22061815,0.558235451 Z" id="Fill-11" fill="#37B34A" mask="url(#mask-2)"></path>
                    </g>
                </g>
            </g>
        </g>
    </g>
</svg>